<svg width="982" height="452" viewBox="0 0 982 452" fill="none" xmlns="http://www.w3.org/2000/svg">
<g clip-path="url(#clip0_157_2)">
<path d="M77.5 351.5L77.5 431.5H-2.5L-2.5 351.5H77.5Z" stroke="#00FFFF" stroke-width="5"/>
<path d="M187.5 351.5V431.5H107.5L107.5 351.5H187.5Z" stroke="#00FFFF" stroke-width="5"/>
<path d="M297.5 351.5V431.5H217.5L217.5 351.5H297.5Z" stroke="#00FFFF" stroke-width="5"/>
<path d="M407.5 351.5V431.5H327.5V351.5H407.5Z" stroke="#00FFFF" stroke-width="5"/>
<path d="M517.5 351.5V431.5H437.5V351.5H517.5Z" stroke="#00FFFF" stroke-width="5"/>
<path d="M627.5 351.5V431.5H547.5V351.5H627.5Z" stroke="#00FFFF" stroke-width="5"/>
<path d="M737.5 351.5V431.5H657.5V351.5H737.5Z" stroke="#00FFFF" stroke-width="5"/>
<path d="M847.5 351.5V431.5H767.5V351.5H847.5Z" stroke="#00FFFF" stroke-width="5"/>
<path d="M957.5 351.5V431.5H877.5V351.5H957.5Z" stroke="#00FFFF" stroke-width="5"/>
<path d="M297.5 233.5V313.5H217.5L217.5 233.5L297.5 233.5Z" stroke="#00FFFF" stroke-width="5"/>
<path d="M187.5 233.5V313.5H107.5L107.5 233.5L187.5 233.5Z" stroke="#00FFFF" stroke-width="5"/>
<path d="M77.5 233.5L77.5 313.5H-2.5L-2.5 233.5L77.5 233.5Z" stroke="#00FFFF" stroke-width="5"/>
<path d="M407.5 233.5V313.5H327.5V233.5L407.5 233.5Z" stroke="#00FFFF" stroke-width="5"/>
<path d="M517.5 233.5V313.5H437.5V233.5L517.5 233.5Z" stroke="#00FFFF" stroke-width="5"/>
<path d="M627.5 233.5V313.5H547.5V233.5L627.5 233.5Z" stroke="#00FFFF" stroke-width="5"/>
<path d="M737.5 233.5V313.5H657.5V233.5L737.5 233.5Z" stroke="#00FFFF" stroke-width="5"/>
<path d="M847.5 233.5V313.5H767.5V233.5L847.5 233.5Z" stroke="#00FFFF" stroke-width="5"/>
<path d="M77.5 115.5L77.5 195.5H-2.5L-2.5 115.5L77.5 115.5Z" stroke="#00FFFF" stroke-width="5"/>
<path d="M187.5 115.5V195.5H107.5L107.5 115.5L187.5 115.5Z" stroke="#00FFFF" stroke-width="5"/>
<path d="M297.5 115.5V195.5H217.5L217.5 115.5L297.5 115.5Z" stroke="#00FFFF" stroke-width="5"/>
<path d="M407.5 115.5V195.5H327.5V115.5L407.5 115.5Z" stroke="#00FFFF" stroke-width="5"/>
<path d="M517.5 115.5V195.5H437.5V115.5L517.5 115.5Z" stroke="#00FFFF" stroke-width="5"/>
<path d="M627.5 115.5V195.5H547.5V115.5L627.5 115.5Z" stroke="#00FFFF" stroke-width="5"/>
<path d="M737.5 115.5V195.5H657.5V115.5L737.5 115.5Z" stroke="#00FFFF" stroke-width="5"/>
<path d="M77.5 -2.5L77.5 77.5L-2.5 77.5L-2.5 -2.5L77.5 -2.5Z" stroke="#00FFFF" stroke-width="5"/>
<path d="M187.5 -2.5V77.5L107.5 77.5L107.5 -2.5L187.5 -2.5Z" stroke="#00FFFF" stroke-width="5"/>
<path d="M297.5 -2.5V77.5L217.5 77.5L217.5 -2.5L297.5 -2.5Z" stroke="#00FFFF" stroke-width="5"/>
<path d="M407.5 -2.5V77.5L327.5 77.5V-2.5L407.5 -2.5Z" stroke="#00FFFF" stroke-width="5"/>
<path d="M517.5 -2.5V77.5L437.5 77.5V-2.5L517.5 -2.5Z" stroke="#00FFFF" stroke-width="5"/>
<path d="M627.5 -2.5V77.5L547.5 77.5V-2.5L627.5 -2.5Z" stroke="#00FFFF" stroke-width="5"/>
</g>
<defs>
<clipPath id="clip0_157_2">
<rect width="981.328" height="451.773" fill="white"/>
</clipPath>
</defs>
</svg>
