<svg width="1081" height="796" viewBox="0 0 1081 796" fill="none" xmlns="http://www.w3.org/2000/svg">
<path d="M2.52131 773.608V772.188L13.956 766.364V768.636L5.18466 772.862L5.25568 772.72V773.075L5.18466 772.933L13.956 777.159V779.432L2.52131 773.608ZM28.0562 769.418L26.1741 769.95C26.0557 769.637 25.8811 769.332 25.6503 769.036C25.4254 768.734 25.1176 768.485 24.727 768.29C24.3364 768.095 23.8363 767.997 23.2267 767.997C22.3921 767.997 21.6967 768.19 21.1404 768.574C20.5899 768.953 20.3147 769.435 20.3147 770.021C20.3147 770.542 20.5041 770.953 20.8829 771.255C21.2617 771.557 21.8535 771.809 22.6585 772.01L24.6826 772.507C25.9018 772.803 26.8103 773.256 27.4081 773.865C28.0059 774.469 28.3048 775.247 28.3048 776.2C28.3048 776.982 28.0799 777.68 27.6301 778.295C27.1862 778.911 26.5647 779.396 25.7657 779.751C24.9667 780.107 24.0375 780.284 22.9781 780.284C21.5872 780.284 20.4361 779.982 19.5246 779.379C18.6131 778.775 18.0361 777.893 17.7934 776.733L19.782 776.236C19.9714 776.97 20.3295 777.52 20.8563 777.887C21.3889 778.254 22.0844 778.438 22.9426 778.438C23.9191 778.438 24.6945 778.23 25.2686 777.816C25.8486 777.396 26.1386 776.893 26.1386 776.307C26.1386 775.833 25.9729 775.437 25.6414 775.117C25.31 774.792 24.801 774.549 24.1144 774.389L21.8417 773.857C20.5929 773.561 19.6755 773.102 19.0896 772.48C18.5096 771.853 18.2195 771.069 18.2195 770.128C18.2195 769.358 18.4356 768.678 18.8676 768.086C19.3056 767.494 19.9004 767.029 20.6521 766.692C21.4097 766.355 22.2678 766.186 23.2267 766.186C24.5761 766.186 25.6355 766.482 26.4049 767.074C27.1802 767.666 27.7307 768.447 28.0562 769.418ZM37.176 780.284C35.862 780.284 34.7286 779.994 33.7757 779.414C32.8288 778.828 32.0978 778.011 31.5829 776.964C31.0739 775.91 30.8194 774.685 30.8194 773.288C30.8194 771.892 31.0739 770.661 31.5829 769.595C32.0978 768.524 32.814 767.689 33.7314 767.092C34.6547 766.488 35.7318 766.186 36.9629 766.186C37.6731 766.186 38.3745 766.304 39.0669 766.541C39.7594 766.778 40.3897 767.163 40.9579 767.695C41.5261 768.222 41.9789 768.92 42.3162 769.79C42.6536 770.661 42.8223 771.732 42.8223 773.004V773.892H32.3109V772.081H40.6916C40.6916 771.312 40.5377 770.625 40.2299 770.021C39.9281 769.418 39.496 768.941 38.9338 768.592C38.3774 768.243 37.7205 768.068 36.9629 768.068C36.1284 768.068 35.4063 768.275 34.7967 768.69C34.193 769.098 33.7284 769.631 33.4029 770.288C33.0774 770.945 32.9146 771.649 32.9146 772.401V773.608C32.9146 774.638 33.0922 775.511 33.4473 776.227C33.8083 776.937 34.3084 777.479 34.9476 777.852C35.5868 778.219 36.3296 778.402 37.176 778.402C37.7264 778.402 38.2235 778.325 38.6674 778.171C39.1172 778.011 39.5049 777.775 39.8304 777.461C40.156 777.141 40.4075 776.745 40.585 776.271L42.6092 776.839C42.3961 777.526 42.0381 778.13 41.535 778.651C41.0319 779.165 40.4105 779.568 39.6706 779.858C38.9308 780.142 38.0993 780.284 37.176 780.284ZM51.5492 780.284C50.2708 780.284 49.1699 779.982 48.2466 779.379C47.3233 778.775 46.6131 777.943 46.1159 776.884C45.6188 775.824 45.3702 774.614 45.3702 773.253C45.3702 771.868 45.6247 770.646 46.1337 769.586C46.6486 768.521 47.3648 767.689 48.2821 767.092C49.2054 766.488 50.2826 766.186 51.5137 766.186C52.4725 766.186 53.3366 766.364 54.106 766.719C54.8754 767.074 55.5057 767.571 55.997 768.21C56.4882 768.849 56.793 769.595 56.9114 770.447H54.8162C54.6564 769.826 54.3013 769.276 53.7509 768.796C53.2064 768.311 52.4725 768.068 51.5492 768.068C50.7324 768.068 50.0163 768.281 49.4007 768.707C48.7911 769.128 48.3147 769.722 47.9714 770.492C47.6341 771.255 47.4654 772.152 47.4654 773.182C47.4654 774.235 47.6311 775.153 47.9625 775.934C48.2999 776.715 48.7734 777.322 49.383 777.754C49.9985 778.186 50.7206 778.402 51.5492 778.402C52.0937 778.402 52.5879 778.307 53.0318 778.118C53.4757 777.929 53.8515 777.656 54.1593 777.301C54.467 776.946 54.686 776.52 54.8162 776.023H56.9114C56.793 776.828 56.5001 777.553 56.0325 778.198C55.5708 778.837 54.9583 779.346 54.1948 779.725C53.4372 780.098 52.5553 780.284 51.5492 780.284ZM65.9047 766.364V768.139H58.8379V766.364H65.9047ZM60.8975 763.097H62.9927V776.094C62.9927 776.686 63.0785 777.129 63.2502 777.425C63.4277 777.715 63.6526 777.911 63.9249 778.011C64.2031 778.106 64.496 778.153 64.8038 778.153C65.0346 778.153 65.224 778.142 65.372 778.118C65.5199 778.088 65.6383 778.065 65.7271 778.047L66.1532 779.929C66.0112 779.982 65.8129 780.036 65.5584 780.089C65.3039 780.148 64.9814 780.178 64.5907 780.178C63.9989 780.178 63.4189 780.05 62.8507 779.796C62.2884 779.541 61.8208 779.154 61.448 778.633C61.081 778.112 60.8975 777.455 60.8975 776.662V763.097ZM69.0563 780V766.364H71.1515V780H69.0563ZM70.1216 764.091C69.7132 764.091 69.3611 763.952 69.0652 763.674C68.7752 763.395 68.6301 763.061 68.6301 762.67C68.6301 762.28 68.7752 761.945 69.0652 761.667C69.3611 761.389 69.7132 761.25 70.1216 761.25C70.53 761.25 70.8792 761.389 71.1692 761.667C71.4651 761.945 71.6131 762.28 71.6131 762.67C71.6131 763.061 71.4651 763.395 71.1692 763.674C70.8792 763.952 70.53 764.091 70.1216 764.091ZM80.5287 780.284C79.2976 780.284 78.2175 779.991 77.2883 779.405C76.365 778.819 75.6429 778 75.1221 776.946C74.6072 775.893 74.3497 774.661 74.3497 773.253C74.3497 771.832 74.6072 770.592 75.1221 769.533C75.6429 768.474 76.365 767.651 77.2883 767.065C78.2175 766.479 79.2976 766.186 80.5287 766.186C81.7597 766.186 82.8369 766.479 83.7602 767.065C84.6894 767.651 85.4115 768.474 85.9264 769.533C86.4472 770.592 86.7077 771.832 86.7077 773.253C86.7077 774.661 86.4472 775.893 85.9264 776.946C85.4115 778 84.6894 778.819 83.7602 779.405C82.8369 779.991 81.7597 780.284 80.5287 780.284ZM80.5287 778.402C81.4638 778.402 82.2332 778.162 82.8369 777.683C83.4406 777.203 83.8875 776.573 84.1775 775.792C84.4675 775.011 84.6125 774.164 84.6125 773.253C84.6125 772.341 84.4675 771.492 84.1775 770.705C83.8875 769.918 83.4406 769.281 82.8369 768.796C82.2332 768.311 81.4638 768.068 80.5287 768.068C79.5935 768.068 78.8241 768.311 78.2204 768.796C77.6167 769.281 77.1699 769.918 76.8799 770.705C76.5899 771.492 76.4449 772.341 76.4449 773.253C76.4449 774.164 76.5899 775.011 76.8799 775.792C77.1699 776.573 77.6167 777.203 78.2204 777.683C78.8241 778.162 79.5935 778.402 80.5287 778.402ZM92.0011 771.797V780H89.9059V766.364H91.93V768.494H92.1076C92.4272 767.802 92.9125 767.246 93.5636 766.825C94.2146 766.399 95.055 766.186 96.0849 766.186C97.0082 766.186 97.8161 766.375 98.5085 766.754C99.201 767.127 99.7396 767.695 100.124 768.459C100.509 769.216 100.701 770.175 100.701 771.335V780H98.6062V771.477C98.6062 770.406 98.328 769.571 97.7717 768.974C97.2153 768.37 96.4518 768.068 95.4812 768.068C94.8124 768.068 94.2146 768.213 93.6879 768.503C93.167 768.793 92.7557 769.216 92.4538 769.773C92.152 770.329 92.0011 771.004 92.0011 771.797ZM116.568 773.608L105.134 779.432V777.159L113.905 772.933L113.834 773.075V772.72L113.905 772.862L105.134 768.636V766.364L116.568 772.188V773.608Z" fill="#00FFFF" fill-opacity="0.1"/>
<path d="M36.5213 739.608V738.188L47.956 732.364V734.636L39.1847 738.862L39.2557 738.72V739.075L39.1847 738.933L47.956 743.159V745.432L36.5213 739.608ZM57.5463 746.284C56.4099 746.284 55.4067 745.997 54.5367 745.423C53.6666 744.843 52.986 744.026 52.4948 742.973C52.0035 741.913 51.7579 740.661 51.7579 739.217C51.7579 737.785 52.0035 736.542 52.4948 735.489C52.986 734.435 53.6696 733.621 54.5455 733.047C55.4215 732.473 56.4336 732.186 57.5818 732.186C58.4695 732.186 59.1709 732.334 59.6858 732.63C60.2066 732.92 60.6032 733.251 60.8754 733.624C61.1536 733.991 61.3696 734.293 61.5235 734.53H61.7011V727.818H63.7963V746H61.7721V743.905H61.5235C61.3696 744.153 61.1507 744.467 60.8666 744.846C60.5825 745.219 60.1771 745.553 59.6503 745.849C59.1236 746.139 58.4222 746.284 57.5463 746.284ZM57.8303 744.402C58.6708 744.402 59.381 744.183 59.961 743.745C60.541 743.301 60.982 742.689 61.2838 741.907C61.5857 741.12 61.7366 740.212 61.7366 739.182C61.7366 738.164 61.5886 737.273 61.2927 736.51C60.9968 735.74 60.5588 735.142 59.9788 734.716C59.3988 734.284 58.6826 734.068 57.8303 734.068C56.9426 734.068 56.2027 734.296 55.6109 734.752C55.0249 735.202 54.584 735.814 54.2881 736.589C53.9981 737.359 53.8531 738.223 53.8531 739.182C53.8531 740.152 54.001 741.034 54.297 741.827C54.5988 742.615 55.0427 743.242 55.6286 743.71C56.2205 744.171 56.9544 744.402 57.8303 744.402ZM67.9244 746V732.364H70.0196V746H67.9244ZM68.9898 730.091C68.5814 730.091 68.2293 729.952 67.9333 729.674C67.6433 729.395 67.4983 729.061 67.4983 728.67C67.4983 728.28 67.6433 727.945 67.9333 727.667C68.2293 727.389 68.5814 727.25 68.9898 727.25C69.3982 727.25 69.7474 727.389 70.0374 727.667C70.3333 727.945 70.4813 728.28 70.4813 728.67C70.4813 729.061 70.3333 729.395 70.0374 729.674C69.7474 729.952 69.3982 730.091 68.9898 730.091ZM85.0076 732.364L79.965 746H77.8343L72.7917 732.364H75.0645L78.8287 743.23H78.9707L82.7349 732.364H85.0076ZM99.8114 739.608L88.3768 745.432V743.159L97.1481 738.933L97.0771 739.075V738.72L97.1481 738.862L88.3768 734.636V732.364L99.8114 738.188V739.608Z" fill="#00FFFF" fill-opacity="0.1"/>
<line x1="34.5" y1="84" x2="34.5" y2="712" stroke="#00FFFF" stroke-opacity="0.1"/>
<path d="M36.5213 61.608V60.1875L47.956 54.3636V56.6364L39.1847 60.8622L39.2557 60.7202V61.0753L39.1847 60.9332L47.956 65.1591V67.4318L36.5213 61.608ZM57.5463 68.2841C56.4099 68.2841 55.4067 67.997 54.5367 67.4229C53.6666 66.8429 52.986 66.0262 52.4948 64.9727C52.0035 63.9132 51.7579 62.6615 51.7579 61.2173C51.7579 59.785 52.0035 58.5421 52.4948 57.4886C52.986 56.4351 53.6696 55.6213 54.5455 55.0472C55.4215 54.4731 56.4336 54.1861 57.5818 54.1861C58.4695 54.1861 59.1709 54.334 59.6858 54.63C60.2066 54.92 60.6032 55.2514 60.8754 55.6243C61.1536 55.9912 61.3696 56.2931 61.5235 56.5298H61.7011V49.8182H63.7963V68H61.7721V65.9048H61.5235C61.3696 66.1534 61.1507 66.4671 60.8666 66.8459C60.5825 67.2187 60.1771 67.5531 59.6503 67.8491C59.1236 68.1391 58.4222 68.2841 57.5463 68.2841ZM57.8303 66.402C58.6708 66.402 59.381 66.183 59.961 65.745C60.541 65.3011 60.982 64.6886 61.2838 63.9073C61.5857 63.1201 61.7366 62.2116 61.7366 61.1818C61.7366 60.1638 61.5886 59.2731 61.2927 58.5096C60.9968 57.7402 60.5588 57.1424 59.9788 56.7163C59.3988 56.2842 58.6826 56.0682 57.8303 56.0682C56.9426 56.0682 56.2027 56.296 55.6109 56.7518C55.0249 57.2016 54.584 57.8142 54.2881 58.5895C53.9981 59.3589 53.8531 60.223 53.8531 61.1818C53.8531 62.1525 54.001 63.0343 54.297 63.8274C54.5988 64.6146 55.0427 65.242 55.6286 65.7095C56.2205 66.1712 56.9544 66.402 57.8303 66.402ZM67.9244 68V54.3636H70.0196V68H67.9244ZM68.9898 52.0909C68.5814 52.0909 68.2293 51.9518 67.9333 51.6737C67.6433 51.3955 67.4983 51.0611 67.4983 50.6705C67.4983 50.2798 67.6433 49.9454 67.9333 49.6673C68.2293 49.3891 68.5814 49.25 68.9898 49.25C69.3982 49.25 69.7474 49.3891 70.0374 49.6673C70.3333 49.9454 70.4813 50.2798 70.4813 50.6705C70.4813 51.0611 70.3333 51.3955 70.0374 51.6737C69.7474 51.9518 69.3982 52.0909 68.9898 52.0909ZM85.0076 54.3636L79.965 68H77.8343L72.7917 54.3636H75.0645L78.8287 65.2301H78.9707L82.7349 54.3636H85.0076ZM99.8114 61.608L88.3768 67.4318V65.1591L97.1481 60.9332L97.0771 61.0753V60.7202L97.1481 60.8622L88.3768 56.6364V54.3636L99.8114 60.1875V61.608Z" fill="#00FFFF" fill-opacity="0.1"/>
<line x1="0.5" y1="50" x2="0.5" y2="746" stroke="#00FFFF" stroke-opacity="0.1"/>
<path d="M2.52131 27.608V26.1875L13.956 20.3636V22.6364L5.18466 26.8622L5.25568 26.7202V27.0753L5.18466 26.9332L13.956 31.1591V33.4318L2.52131 27.608ZM28.0562 23.4176L26.1741 23.9503C26.0557 23.6366 25.8811 23.3318 25.6503 23.0359C25.4254 22.734 25.1176 22.4854 24.727 22.2901C24.3364 22.0948 23.8363 21.9972 23.2267 21.9972C22.3921 21.9972 21.6967 22.1895 21.1404 22.5742C20.5899 22.953 20.3147 23.4354 20.3147 24.0213C20.3147 24.5421 20.5041 24.9535 20.8829 25.2553C21.2617 25.5572 21.8535 25.8087 22.6585 26.0099L24.6826 26.5071C25.9018 26.803 26.8103 27.2558 27.4081 27.8654C28.0059 28.4691 28.3048 29.2474 28.3048 30.2003C28.3048 30.9815 28.0799 31.6799 27.6301 32.2955C27.1862 32.911 26.5647 33.3963 25.7657 33.7514C24.9667 34.1065 24.0375 34.2841 22.9781 34.2841C21.5872 34.2841 20.4361 33.9822 19.5246 33.3786C18.6131 32.7749 18.0361 31.893 17.7934 30.733L19.782 30.2358C19.9714 30.9697 20.3295 31.5201 20.8563 31.8871C21.3889 32.254 22.0844 32.4375 22.9426 32.4375C23.9191 32.4375 24.6945 32.2304 25.2686 31.8161C25.8486 31.3958 26.1386 30.8928 26.1386 30.3068C26.1386 29.8333 25.9729 29.4368 25.6414 29.1172C25.31 28.7917 24.801 28.549 24.1144 28.3892L21.8417 27.8565C20.5929 27.5606 19.6755 27.1019 19.0896 26.4805C18.5096 25.8531 18.2195 25.0689 18.2195 24.1278C18.2195 23.3584 18.4356 22.6778 18.8676 22.0859C19.3056 21.4941 19.9004 21.0295 20.6521 20.6921C21.4097 20.3548 22.2678 20.1861 23.2267 20.1861C24.5761 20.1861 25.6355 20.482 26.4049 21.0739C27.1802 21.6657 27.7307 22.447 28.0562 23.4176ZM37.176 34.2841C35.862 34.2841 34.7286 33.9941 33.7757 33.4141C32.8288 32.8281 32.0978 32.0114 31.5829 30.9638C31.0739 29.9103 30.8194 28.6851 30.8194 27.2884C30.8194 25.8916 31.0739 24.6605 31.5829 23.5952C32.0978 22.5239 32.814 21.6894 33.7314 21.0916C34.6547 20.4879 35.7318 20.1861 36.9629 20.1861C37.6731 20.1861 38.3745 20.3045 39.0669 20.5412C39.7594 20.7779 40.3897 21.1626 40.9579 21.6953C41.5261 22.2221 41.9789 22.9205 42.3162 23.7905C42.6536 24.6605 42.8223 25.7318 42.8223 27.0043V27.892H32.3109V26.081H40.6916C40.6916 25.3116 40.5377 24.625 40.2299 24.0213C39.9281 23.4176 39.496 22.9412 38.9338 22.592C38.3774 22.2428 37.7205 22.0682 36.9629 22.0682C36.1284 22.0682 35.4063 22.2753 34.7967 22.6896C34.193 23.098 33.7284 23.6307 33.4029 24.2876C33.0774 24.9446 32.9146 25.6489 32.9146 26.4006V27.608C32.9146 28.6378 33.0922 29.5108 33.4473 30.2269C33.8083 30.9371 34.3084 31.4787 34.9476 31.8516C35.5868 32.2185 36.3296 32.402 37.176 32.402C37.7264 32.402 38.2235 32.325 38.6674 32.1712C39.1172 32.0114 39.5049 31.7746 39.8304 31.4609C40.156 31.1413 40.4075 30.7448 40.585 30.2713L42.6092 30.8395C42.3961 31.526 42.0381 32.1297 41.535 32.6506C41.0319 33.1655 40.4105 33.5679 39.6706 33.858C38.9308 34.142 38.0993 34.2841 37.176 34.2841ZM51.5492 34.2841C50.2708 34.2841 49.1699 33.9822 48.2466 33.3786C47.3233 32.7749 46.6131 31.9433 46.1159 30.8839C45.6188 29.8245 45.3702 28.6141 45.3702 27.2528C45.3702 25.8679 45.6247 24.6457 46.1337 23.5863C46.6486 22.521 47.3648 21.6894 48.2821 21.0916C49.2054 20.4879 50.2826 20.1861 51.5137 20.1861C52.4725 20.1861 53.3366 20.3636 54.106 20.7188C54.8754 21.0739 55.5057 21.571 55.997 22.2102C56.4882 22.8494 56.793 23.5952 56.9114 24.4474H54.8162C54.6564 23.826 54.3013 23.2756 53.7509 22.7962C53.2064 22.3108 52.4725 22.0682 51.5492 22.0682C50.7324 22.0682 50.0163 22.2812 49.4007 22.7074C48.7911 23.1276 48.3147 23.7224 47.9714 24.4918C47.6341 25.2553 47.4654 26.152 47.4654 27.1818C47.4654 28.2353 47.6311 29.1527 47.9625 29.9339C48.2999 30.7152 48.7734 31.3219 49.383 31.7539C49.9985 32.186 50.7206 32.402 51.5492 32.402C52.0937 32.402 52.5879 32.3073 53.0318 32.1179C53.4757 31.9285 53.8515 31.6562 54.1593 31.3011C54.467 30.946 54.686 30.5199 54.8162 30.0227H56.9114C56.793 30.8277 56.5001 31.5527 56.0325 32.1978C55.5708 32.837 54.9583 33.346 54.1948 33.7248C53.4372 34.0977 52.5553 34.2841 51.5492 34.2841ZM65.9047 20.3636V22.1392H58.8379V20.3636H65.9047ZM60.8975 17.0966H62.9927V30.0938C62.9927 30.6856 63.0785 31.1295 63.2502 31.4254C63.4277 31.7154 63.6526 31.9107 63.9249 32.0114C64.2031 32.1061 64.496 32.1534 64.8038 32.1534C65.0346 32.1534 65.224 32.1416 65.372 32.1179C65.5199 32.0883 65.6383 32.0646 65.7271 32.0469L66.1532 33.929C66.0112 33.9822 65.8129 34.0355 65.5584 34.0888C65.3039 34.148 64.9814 34.1776 64.5907 34.1776C63.9989 34.1776 63.4189 34.0503 62.8507 33.7958C62.2884 33.5413 61.8208 33.1536 61.448 32.6328C61.081 32.112 60.8975 31.455 60.8975 30.6619V17.0966ZM69.0563 34V20.3636H71.1515V34H69.0563ZM70.1216 18.0909C69.7132 18.0909 69.3611 17.9518 69.0652 17.6737C68.7752 17.3955 68.6301 17.0611 68.6301 16.6705C68.6301 16.2798 68.7752 15.9454 69.0652 15.6673C69.3611 15.3891 69.7132 15.25 70.1216 15.25C70.53 15.25 70.8792 15.3891 71.1692 15.6673C71.4651 15.9454 71.6131 16.2798 71.6131 16.6705C71.6131 17.0611 71.4651 17.3955 71.1692 17.6737C70.8792 17.9518 70.53 18.0909 70.1216 18.0909ZM80.5287 34.2841C79.2976 34.2841 78.2175 33.9911 77.2883 33.4052C76.365 32.8192 75.6429 31.9995 75.1221 30.946C74.6072 29.8925 74.3497 28.6615 74.3497 27.2528C74.3497 25.8324 74.6072 24.5924 75.1221 23.533C75.6429 22.4736 76.365 21.6509 77.2883 21.065C78.2175 20.479 79.2976 20.1861 80.5287 20.1861C81.7597 20.1861 82.8369 20.479 83.7602 21.065C84.6894 21.6509 85.4115 22.4736 85.9264 23.533C86.4472 24.5924 86.7077 25.8324 86.7077 27.2528C86.7077 28.6615 86.4472 29.8925 85.9264 30.946C85.4115 31.9995 84.6894 32.8192 83.7602 33.4052C82.8369 33.9911 81.7597 34.2841 80.5287 34.2841ZM80.5287 32.402C81.4638 32.402 82.2332 32.1623 82.8369 31.6829C83.4406 31.2035 83.8875 30.5732 84.1775 29.7919C84.4675 29.0107 84.6125 28.1643 84.6125 27.2528C84.6125 26.3414 84.4675 25.4921 84.1775 24.7049C83.8875 23.9177 83.4406 23.2815 82.8369 22.7962C82.2332 22.3108 81.4638 22.0682 80.5287 22.0682C79.5935 22.0682 78.8241 22.3108 78.2204 22.7962C77.6167 23.2815 77.1699 23.9177 76.8799 24.7049C76.5899 25.4921 76.4449 26.3414 76.4449 27.2528C76.4449 28.1643 76.5899 29.0107 76.8799 29.7919C77.1699 30.5732 77.6167 31.2035 78.2204 31.6829C78.8241 32.1623 79.5935 32.402 80.5287 32.402ZM92.0011 25.7969V34H89.9059V20.3636H91.93V22.4943H92.1076C92.4272 21.8018 92.9125 21.2455 93.5636 20.8253C94.2146 20.3991 95.055 20.1861 96.0849 20.1861C97.0082 20.1861 97.8161 20.3755 98.5085 20.7543C99.201 21.1271 99.7396 21.6953 100.124 22.4588C100.509 23.2164 100.701 24.1752 100.701 25.3352V34H98.6062V25.4773C98.6062 24.406 98.328 23.5715 97.7717 22.9737C97.2153 22.37 96.4518 22.0682 95.4812 22.0682C94.8124 22.0682 94.2146 22.2132 93.6879 22.5032C93.167 22.7932 92.7557 23.2164 92.4538 23.7727C92.152 24.3291 92.0011 25.0038 92.0011 25.7969ZM116.568 27.608L105.134 33.4318V31.1591L113.905 26.9332L113.834 27.0753V26.7202L113.905 26.8622L105.134 22.6364V20.3636L116.568 26.1875V27.608Z" fill="#00FFFF" fill-opacity="0.1"/>
</svg>
