<svg width="1694" height="1684" viewBox="0 0 1694 1684" fill="none" xmlns="http://www.w3.org/2000/svg">
<g clip-path="url(#clip0_10_168)">
<path d="M554.837 309.124L500.022 367.394L441.752 312.579L496.567 254.309L554.837 309.124Z" stroke="#00BFFF" stroke-width="5"/>
<path d="M634.958 384.494L580.143 442.764L521.873 387.949L576.688 329.679L634.958 384.494Z" stroke="#00BFFF" stroke-width="5"/>
<path d="M715.078 459.864L660.264 518.134L601.994 463.319L656.809 405.05L715.078 459.864Z" stroke="#00BFFF" stroke-width="5"/>
<path d="M795.199 535.234L740.385 593.504L682.115 538.689L736.93 480.42L795.199 535.234Z" stroke="#00BFFF" stroke-width="5"/>
<path d="M875.32 610.604L820.505 668.874L762.236 614.06L817.05 555.79L875.32 610.604Z" stroke="#00BFFF" stroke-width="5"/>
<path d="M955.441 685.975L900.626 744.244L842.356 689.43L897.171 631.16L955.441 685.975Z" stroke="#00BFFF" stroke-width="5"/>
<path d="M1035.56 761.345L980.747 819.614L922.477 764.8L977.292 706.53L1035.56 761.345Z" stroke="#00BFFF" stroke-width="5"/>
<path d="M1115.68 836.715L1060.87 894.985L1002.6 840.17L1057.41 781.9L1115.68 836.715Z" stroke="#00BFFF" stroke-width="5"/>
<path d="M1195.8 912.085L1140.99 970.355L1082.72 915.54L1137.53 857.27L1195.8 912.085Z" stroke="#00BFFF" stroke-width="5"/>
<path d="M795.93 373.916L741.115 432.186L682.846 377.372L737.66 319.102L795.93 373.916Z" stroke="#00BFFF" stroke-width="5"/>
<path d="M715.809 298.546L660.995 356.816L602.725 302.001L657.539 243.732L715.809 298.546Z" stroke="#00BFFF" stroke-width="5"/>
<path d="M635.688 223.176L580.874 281.446L522.604 226.631L577.419 168.362L635.688 223.176Z" stroke="#00BFFF" stroke-width="5"/>
<path d="M876.051 449.287L821.236 507.556L762.966 452.742L817.781 394.472L876.051 449.287Z" stroke="#00BFFF" stroke-width="5"/>
<path d="M956.171 524.657L901.357 582.926L843.087 528.112L897.902 469.842L956.171 524.657Z" stroke="#00BFFF" stroke-width="5"/>
<path d="M1036.29 600.027L981.478 658.297L923.208 603.482L978.023 545.212L1036.29 600.027Z" stroke="#00BFFF" stroke-width="5"/>
<path d="M1116.41 675.397L1061.6 733.667L1003.33 678.852L1058.14 620.582L1116.41 675.397Z" stroke="#00BFFF" stroke-width="5"/>
<path d="M1196.53 750.767L1141.72 809.037L1083.45 754.222L1138.26 695.952L1196.53 750.767Z" stroke="#00BFFF" stroke-width="5"/>
<path d="M716.54 137.229L661.725 195.498L603.456 140.684L658.27 82.4139L716.54 137.229Z" stroke="#00BFFF" stroke-width="5"/>
<path d="M796.661 212.599L741.846 270.868L683.576 216.054L738.391 157.784L796.661 212.599Z" stroke="#00BFFF" stroke-width="5"/>
<path d="M876.781 287.969L821.967 346.238L763.697 291.424L818.512 233.154L876.781 287.969Z" stroke="#00BFFF" stroke-width="5"/>
<path d="M956.902 363.339L902.088 421.609L843.818 366.794L898.633 308.524L956.902 363.339Z" stroke="#00BFFF" stroke-width="5"/>
<path d="M1037.02 438.709L982.208 496.979L923.939 442.164L978.753 383.894L1037.02 438.709Z" stroke="#00BFFF" stroke-width="5"/>
<path d="M1117.14 514.079L1062.33 572.349L1004.06 517.534L1058.87 459.264L1117.14 514.079Z" stroke="#00BFFF" stroke-width="5"/>
<path d="M1197.26 589.449L1142.45 647.719L1084.18 592.904L1139 534.635L1197.26 589.449Z" stroke="#00BFFF" stroke-width="5"/>
<path d="M797.391 51.2807L742.577 109.55L684.307 54.7358L739.122 -3.53388L797.391 51.2807Z" stroke="#00BFFF" stroke-width="5"/>
<path d="M877.512 126.651L822.698 184.921L764.428 130.106L819.243 71.8362L877.512 126.651Z" stroke="#00BFFF" stroke-width="5"/>
<path d="M957.633 202.021L902.818 260.291L844.549 205.476L899.363 147.206L957.633 202.021Z" stroke="#00BFFF" stroke-width="5"/>
<path d="M1037.75 277.391L982.939 335.661L924.67 280.846L979.484 222.576L1037.75 277.391Z" stroke="#00BFFF" stroke-width="5"/>
<path d="M1117.87 352.761L1063.06 411.031L1004.79 356.216L1059.6 297.947L1117.87 352.761Z" stroke="#00BFFF" stroke-width="5"/>
<path d="M1198 428.131L1143.18 486.401L1084.91 431.586L1139.73 373.317L1198 428.131Z" stroke="#00BFFF" stroke-width="5"/>
</g>
<defs>
<clipPath id="clip0_10_168">
<rect width="1310.76" height="1078.88" fill="white" transform="translate(739.23) rotate(43.25)"/>
</clipPath>
</defs>
</svg>
