<svg width="1694" height="1684" viewBox="0 0 1694 1684" fill="none" xmlns="http://www.w3.org/2000/svg">
<g clip-path="url(#clip0_10_213)">
<path d="M554.825 309.128L500.012 367.399L441.741 312.586L496.554 254.315L554.825 309.128Z" stroke="#00FFFF" stroke-width="5"/>
<path d="M634.948 384.497L580.135 442.768L521.864 387.954L576.677 329.683L634.948 384.497Z" stroke="#00FFFF" stroke-width="5"/>
<path d="M715.07 459.865L660.257 518.136L601.986 463.323L656.8 405.052L715.07 459.865Z" stroke="#00FFFF" stroke-width="5"/>
<path d="M795.193 535.233L740.38 593.504L682.109 538.691L736.922 480.42L795.193 535.233Z" stroke="#00FFFF" stroke-width="5"/>
<path d="M875.316 610.601L820.502 668.872L762.231 614.059L817.045 555.788L875.316 610.601Z" stroke="#00FFFF" stroke-width="5"/>
<path d="M955.438 685.97L900.625 744.241L842.354 689.427L897.167 631.156L955.438 685.97Z" stroke="#00FFFF" stroke-width="5"/>
<path d="M1035.56 761.338L980.748 819.609L922.477 764.795L977.29 706.524L1035.56 761.338Z" stroke="#00FFFF" stroke-width="5"/>
<path d="M1115.68 836.706L1060.87 894.977L1002.6 840.164L1057.41 781.893L1115.68 836.706Z" stroke="#00FFFF" stroke-width="5"/>
<path d="M1195.81 912.074L1140.99 970.345L1082.72 915.532L1137.54 857.261L1195.81 912.074Z" stroke="#00FFFF" stroke-width="5"/>
<path d="M795.92 373.915L741.107 432.186L682.836 377.373L737.649 319.102L795.92 373.915Z" stroke="#00FFFF" stroke-width="5"/>
<path d="M715.797 298.547L660.984 356.818L602.713 302.005L657.526 243.734L715.797 298.547Z" stroke="#00FFFF" stroke-width="5"/>
<path d="M635.675 223.179L580.862 281.45L522.591 226.637L577.404 168.366L635.675 223.179Z" stroke="#00FFFF" stroke-width="5"/>
<path d="M876.043 449.284L821.229 507.554L762.958 452.741L817.772 394.47L876.043 449.284Z" stroke="#00FFFF" stroke-width="5"/>
<path d="M956.165 524.652L901.352 582.923L843.081 528.109L897.894 469.838L956.165 524.652Z" stroke="#00FFFF" stroke-width="5"/>
<path d="M1036.29 600.02L981.475 658.291L923.204 603.478L978.017 545.207L1036.29 600.02Z" stroke="#00FFFF" stroke-width="5"/>
<path d="M1116.41 675.388L1061.6 733.659L1003.33 678.846L1058.14 620.575L1116.41 675.388Z" stroke="#00FFFF" stroke-width="5"/>
<path d="M1196.53 750.756L1141.72 809.027L1083.45 754.214L1138.26 695.943L1196.53 750.756Z" stroke="#00FFFF" stroke-width="5"/>
<path d="M716.524 137.229L661.711 195.5L603.44 140.687L658.253 82.4158L716.524 137.229Z" stroke="#00FFFF" stroke-width="5"/>
<path d="M796.647 212.597L741.834 270.868L683.563 216.055L738.376 157.784L796.647 212.597Z" stroke="#00FFFF" stroke-width="5"/>
<path d="M876.77 287.965L821.956 346.236L763.685 291.423L818.499 233.152L876.77 287.965Z" stroke="#00FFFF" stroke-width="5"/>
<path d="M956.892 363.334L902.079 421.605L843.808 366.792L898.621 308.521L956.892 363.334Z" stroke="#00FFFF" stroke-width="5"/>
<path d="M1037.01 438.702L982.202 496.973L923.931 442.16L978.744 383.889L1037.01 438.702Z" stroke="#00FFFF" stroke-width="5"/>
<path d="M1117.14 514.07L1062.32 572.341L1004.05 517.528L1058.87 459.257L1117.14 514.07Z" stroke="#00FFFF" stroke-width="5"/>
<path d="M1197.26 589.438L1142.45 647.709L1084.18 592.896L1138.99 534.625L1197.26 589.438Z" stroke="#00FFFF" stroke-width="5"/>
<path d="M797.374 51.2794L742.561 109.55L684.29 54.7371L739.103 -3.53388L797.374 51.2794Z" stroke="#00FFFF" stroke-width="5"/>
<path d="M877.496 126.648L822.683 184.919L764.412 130.105L819.226 71.8343L877.496 126.648Z" stroke="#00FFFF" stroke-width="5"/>
<path d="M957.619 202.016L902.806 260.287L844.535 205.473L899.348 147.202L957.619 202.016Z" stroke="#00FFFF" stroke-width="5"/>
<path d="M1037.74 277.384L982.928 335.655L924.657 280.842L979.471 222.571L1037.74 277.384Z" stroke="#00FFFF" stroke-width="5"/>
<path d="M1117.86 352.752L1063.05 411.023L1004.78 356.21L1059.59 297.939L1117.86 352.752Z" stroke="#00FFFF" stroke-width="5"/>
<path d="M1197.99 428.12L1143.17 486.391L1084.9 431.578L1139.72 373.307L1197.99 428.12Z" stroke="#00FFFF" stroke-width="5"/>
</g>
<defs>
<clipPath id="clip0_10_213">
<rect width="1310.76" height="1078.88" fill="white" transform="translate(739.211) rotate(43.2486)"/>
</clipPath>
</defs>
</svg>
